<?xml version="1.0" encoding="UTF-8" standalone="no"?>
<!-- Created with Inkscape (http://www.inkscape.org/) -->

<svg
   width="1024mm"
   height="1024mm"
   viewBox="0 0 1024 1024"
   version="1.1"
   id="svg1"
   inkscape:export-filename="icon.png"
   inkscape:export-xdpi="25.4"
   inkscape:export-ydpi="25.4"
   xmlns:inkscape="http://www.inkscape.org/namespaces/inkscape"
   xmlns:sodipodi="http://sodipodi.sourceforge.net/DTD/sodipodi-0.dtd"
   xmlns="http://www.w3.org/2000/svg"
   xmlns:svg="http://www.w3.org/2000/svg">
  <sodipodi:namedview
     id="namedview1"
     pagecolor="#505050"
     bordercolor="#eeeeee"
     borderopacity="1"
     inkscape:showpageshadow="0"
     inkscape:pageopacity="0"
     inkscape:pagecheckerboard="0"
     inkscape:deskcolor="#505050"
     inkscape:document-units="mm">
    <inkscape:page
       x="0"
       y="0"
       width="1024"
       height="1024"
       id="page2"
       margin="0"
       bleed="0" />
  </sodipodi:namedview>
  <defs
     id="defs1" />
  <g
     inkscape:groupmode="layer"
     id="layer2"
     inkscape:label="Layer 2">
    <rect
       style="fill:#808000;fill-opacity:1;stroke-width:0.127;stroke-dasharray:none"
       id="rect4"
       width="1182.1805"
       height="1147.2524"
       x="-51.048706"
       y="-67.16935"
       rx="48.154167"
       ry="48.154167" />
  </g>
  <g
     inkscape:label="Layer 1"
     inkscape:groupmode="layer"
     id="layer1">
    <path
       class="fil0"
       d="M 199.07107,52.574723 H 661.24995 L 852.24561,262.29544 v 679.16964 c 0,16.5221 -12.33641,29.9602 -27.31628,29.9602 H 199.07107 c -14.98027,0 -27.31668,-13.4381 -27.31668,-29.9602 V 82.534883 c 0,-16.52208 12.33641,-29.96016 27.31668,-29.96016 z"
       id="path1"
       style="fill:#eb334b;fill-opacity:1;stroke-width:0.220295"
       sodipodi:nodetypes="sccssssss" />
    <path
       class="fil1"
       d="M 852.24561,262.29544 H 688.56662 c -14.98028,0 -27.31667,-13.4377 -27.31667,-29.95979 V 52.574723 Z"
       id="path2"
       style="fill:#db162f;fill-opacity:1;stroke-width:0.220295"
       sodipodi:nodetypes="csscc" />
    <path
       class="fil2"
       d="m 333.45106,462.06986 c 5.06672,0 9.25239,1.7636 12.77691,5.28697 3.52337,3.30388 5.28737,7.7106 5.28737,12.55705 0,5.06671 -1.76361,9.25239 -5.28737,12.77692 -3.52336,3.74669 -7.71019,5.50762 -12.77691,5.50762 -4.84645,0 -9.2524,-1.76362 -12.7773,-5.50762 -3.52337,-3.52336 -5.28697,-7.71021 -5.28697,-12.77692 0,-4.84644 1.7636,-9.2524 5.28697,-12.55705 3.52337,-3.52337 7.93085,-5.28697 12.7773,-5.28697 z m 80.18717,-92.08344 v 13.65835 c 5.72788,-5.50725 11.89589,-9.91319 18.50479,-12.55667 6.60892,-2.86489 13.65833,-4.18568 21.14828,-4.18568 16.30182,0 30.18041,6.1684 41.63578,18.28453 11.45536,12.33641 16.96298,28.19771 16.96298,47.58353 0,18.50479 -5.72787,34.14584 -17.62375,46.48263 -11.89588,12.55664 -25.77448,18.94531 -41.85604,18.94531 -7.26969,0 -14.09886,-1.32078 -20.26725,-3.96542 -6.168,-2.64157 -12.33639,-6.82918 -18.50479,-12.55667 v 59.03889 h -31.2817 v -170.7288 z m 33.04455,25.55422 c -9.91356,0 -18.06428,3.52336 -24.67318,10.1338 -6.38866,6.82919 -9.69292,15.64106 -9.69292,26.43527 0,11.01485 3.30388,20.047 9.69292,26.87615 6.6089,7.04942 14.75962,10.35368 24.67318,10.35368 9.47266,0 17.62337,-3.52337 24.01201,-10.35369 6.60892,-7.04943 9.91319,-15.8613 9.91319,-26.65589 0,-10.79421 -3.30388,-19.60609 -9.69293,-26.43525 -6.38864,-6.82916 -14.53936,-10.35408 -24.23227,-10.35407 z m 183.94623,-74.01916 h 31.28171 v 173.59255 h -31.28171 v -13.4377 c -6.1684,5.94775 -12.33639,9.91317 -18.50478,12.55667 -6.16839,2.64155 -12.99756,3.96542 -20.04699,3.96542 -16.30182,0 -30.18042,-6.38867 -42.07631,-18.94531 -11.89587,-12.33679 -17.62336,-27.97785 -17.62336,-46.48264 0,-19.38582 5.72749,-35.24712 16.9626,-47.58353 11.45536,-12.11613 25.33396,-18.28453 41.63578,-18.28453 7.7102,0 14.75961,1.32079 21.36853,4.18568 6.60891,2.8649 12.55665,7.04943 18.28453,12.55667 z m -33.04415,74.01916 c -9.91356,0 -17.84402,3.52336 -24.23268,10.35408 -6.6089,6.82916 -9.69291,15.64104 -9.69291,26.43525 0,10.79459 3.30388,19.60646 9.69291,26.65589 6.60892,6.82916 14.76002,10.35368 24.23268,10.35368 9.91316,0 18.06389,-3.30387 24.67279,-10.35369 6.38864,-6.82915 9.69291,-15.8613 9.69291,-26.87615 0,-10.79421 -3.30388,-19.60608 -9.69291,-26.43526 -6.6089,-6.60889 -14.75963,-10.13381 -24.67279,-10.1338 z m 81.06859,-25.55422 h 11.01446 c 0.23104,-16.52207 0.43898,-26.21498 0.8818,-29.07874 0.8818,-6.82915 3.7467,-12.33639 8.59123,-16.3018 5.06711,-4.1857 11.89628,-6.16841 20.92802,-6.16841 6.60891,0 13.8786,1.54413 22.0297,4.62621 v 23.79175 c -4.62619,-1.32078 -8.1511,-1.98309 -11.23511,-1.98309 -3.52336,0 -6.16838,0.8818 -7.93045,2.42207 -1.32079,1.10131 -1.76362,3.52336 -1.76362,7.04944 l -0.23103,15.64065 h 19.82633 v 26.43564 H 721.1587 V 495.1121 H 689.65636 V 396.42014 H 678.6419 Z"
       id="path3"
       style="fill:#f5edf0;fill-opacity:1;fill-rule:nonzero;stroke-width:0.220295"
       sodipodi:nodetypes="scscscscscccscscsccccccscscscscsccccccscscssccscscscscsccccsccsccccccccccc" />
    <text
       xml:space="preserve"
       style="font-size:3699.85px;line-height:5%;font-family:Sans;-inkscape-font-specification:'Sans, Normal';text-align:start;writing-mode:lr-tb;direction:ltr;text-anchor:start;white-space:pre;inline-size:12890.2;fill:#fffffa;fill-opacity:1;stroke-width:46.2482"
       x="316.38889"
       y="2775.5208"
       id="text3"
       transform="matrix(0.05507385,0,0,0.05507385,220.61366,604.83277)"><tspan
         x="316.38889"
         y="2775.5208"
         id="tspan5"><tspan
           dx="0 0 0.00012207031 0 -0.00024414062 -0.00024414062 0.00036621094"
           style="font-family:'Noto Sans';-inkscape-font-specification:'Noto Sans';fill:#f5edf0"
           id="tspan3">Visual
</tspan></tspan></text>
    <g
       style="fill:#8b1a10"
       id="g4"
       transform="matrix(0.12736677,0,0,0.12734752,253.99397,914.65172)">
      <path
         d="m 754,-81 q -8,0 -15,-2.5 -7,-2.5 -13,-8.5 L 522,-296 q -6,-6 -8.5,-13 -2.5,-7 -2.5,-15 0,-8 2.5,-15 2.5,-7 8.5,-13 l 85,-85 q 6,-6 13,-8.5 7,-2.5 15,-2.5 8,0 15,2.5 7,2.5 13,8.5 l 204,204 q 6,6 8.5,13 2.5,7 2.5,15 0,8 -2.5,15 -2.5,7 -8.5,13 l -85,85 q -6,6 -13,8.5 -7,2.5 -15,2.5 z m 0,-95 29,-29 -147,-147 -29,29 z m -549,96 q -8,0 -15.5,-3 -7.5,-3 -13.5,-9 l -84,-84 q -6,-6 -9,-13.5 -3,-7.5 -3,-15.5 0,-8 3,-15 3,-7 9,-13 l 212,-212 h 85 l 34,-34 -165,-165 H 201 L 80,-765 193,-878 314,-757 v 57 l 165,165 116,-116 -43,-43 56,-56 H 495 l -28,-28 142,-142 28,28 v 113 l 56,-56 142,142 q 17,17 26,38.5 9,21.5 9,45.5 0,24 -9,46 -9,22 -26,39 l -85,-85 -56,56 -42,-42 -207,207 v 84 L 233,-92 q -6,6 -13,9 -7,3 -15,3 z m 0,-96 170,-170 v -29 h -29 l -170,170 z m 0,0 -29,-29 15,14 z m 549,0 29,-29 z"
         id="path1-5"
         style="fill:#70161e;fill-opacity:1;stroke-width:0.997196;stroke-dasharray:none" />
    </g>
    <text
       xml:space="preserve"
       style="font-style:normal;font-variant:normal;font-weight:normal;font-stretch:normal;font-size:108.675px;line-height:5%;font-family:'Noto Sans';-inkscape-font-specification:'Noto Sans';text-align:start;writing-mode:lr-tb;direction:ltr;text-anchor:start;fill:#fffffa;fill-opacity:1;stroke-width:10.1883"
       x="381.24469"
       y="891.73071"
       id="text4"><tspan
         sodipodi:role="line"
         id="tspan4"
         style="font-size:108.675px;fill:#f5edf0;fill-opacity:1;stroke-width:10.1883"
         x="381.24469"
         y="891.73071">Toolkit</tspan></text>
  </g>
  <path
     style="fill:#b3b3b3;fill-opacity:1;stroke-width:1.28965;stroke-dasharray:none"
     d="m -23.103384,1073.6306 c -13.569903,-6.1755 -21.634651,-17.0909 -25.275625,-34.2101 -1.876531,-8.8231 -2.544037,-184.7004 -2.053347,-541.02393 0.70661,-513.117697 0.87094,-528.2409 5.848803,-538.266248 2.816968,-5.673339 9.982864,-13.532152 15.924215,-17.464029 l 10.80245,-7.148867 553.671868,-0.732468 c 503.82622,-0.666522 554.70402,-0.342574 565.13682,3.598339 14.2038,5.365327 23.7674,17.51539 27.4633,34.890762 1.9384,9.112351 2.5988,179.307371 2.1004,541.243151 -0.7066,513.11769 -0.871,528.24089 -5.8488,538.26629 -2.817,5.6733 -9.9829,13.5321 -15.9242,17.464 l -10.8025,7.1489 -555.01524,0.6229 c -536.657454,0.6024 -555.379507,0.4573 -566.028144,-4.3887 z M 839.28854,967.70133 c 15.84436,-10.38272 15.10556,7.43858 15.10556,-364.38218 V 262.06465 L 758.82145,157.22837 663.24876,52.392093 H 425.45478 187.66083 l -7.60321,7.603201 c -5.7447,5.74471 -8.02418,11.162847 -9.32544,22.165887 -0.94724,8.009477 -1.3622,207.015139 -0.92214,442.234779 l 0.80011,427.67215 5.6252,7.58523 c 3.09386,4.17193 9.74362,9.03851 14.77725,10.81466 6.96173,2.45647 84.7349,3.09949 324.96696,2.68677 300.85821,-0.51692 316.16981,-0.77515 323.30898,-5.45344 z"
     id="path4" />
  <path
     style="fill:#590004;fill-opacity:1;stroke-width:1.28965;stroke-dasharray:none"
     d="m -16.790021,1074.1288 c -10.791921,-1.6351 -25.15198,-16.4532 -28.694801,-29.6102 -2.212739,-8.2176 -2.828158,-154.93822 -2.281822,-544.00613 0.737825,-525.436917 0.821126,-532.87452 6.065292,-541.546799 2.924456,-4.836171 9.659541,-11.80229 14.96686,-15.480265 l 9.64967,-6.687225 558.659382,0.703008 c 538.87064,0.678109 558.91944,0.879407 566.00064,5.682867 4.0378,2.738921 10.083,9.388686 13.4339,14.777256 l 6.0926,9.797399 V 506.48496 c 0,538.26004 0,538.73374 -5.5008,547.41364 -3.0254,4.778 -9.6079,11.7174 -14.6276,15.4209 l -9.1267,6.7335 -553.62517,-0.4026 c -304.49384,-0.2214 -556.948979,-0.9061 -561.011451,-1.5216 z M 840.22696,969.19213 c 13.3237,-7.61532 12.77541,7.02048 13.57255,-362.29883 L 854.54828,259.98189 759.98577,156.18699 665.42326,52.392093 H 425.90799 186.39275 l -7.8913,8.236531 -7.8913,8.23653 -0.69548,442.317356 -0.69549,442.31734 8.47473,8.74371 c 4.6611,4.80904 11.62383,9.25147 15.47274,9.87213 3.8489,0.62061 149.66572,0.98624 324.03732,0.81243 251.28641,-0.25043 318.28034,-1.02526 323.02299,-3.73599 z"
     id="path5" />
</svg>
